<svg xmlns="http://www.w3.org/2000/svg" xmlns:xlink="http://www.w3.org/1999/xlink" width="1920" zoomAndPan="magnify" viewBox="0 0 1440 149.999998" height="200" preserveAspectRatio="xMidYMid meet" version="1.0"><defs><g/></defs><g fill="rgb(100%, 75.689697%, 69.799805%)" fill-opacity="0.302"><g transform="translate(19.00001, 97.368889)"><g><path d="M 4.214844 0 L 66.171875 0 L 66.171875 -11.445312 L 17.8125 -11.445312 L 17.8125 -60.234375 L 4.214844 -60.234375 Z M 4.214844 0 "/></g></g></g><g fill="rgb(100%, 75.689697%, 69.799805%)" fill-opacity="0.302"><g transform="translate(88.519522, 97.368889)"><g><path d="M 3.355469 0 L 18.414062 0 L 25.726562 -13.335938 L 64.105469 -13.335938 L 71.417969 0 L 86.476562 0 L 53.695312 -60.234375 L 36.140625 -60.234375 Z M 30.976562 -23.835938 L 44.917969 -49.132812 L 58.855469 -23.835938 Z M 30.976562 -23.835938 "/></g></g></g><g fill="rgb(100%, 75.689697%, 69.799805%)" fill-opacity="0.302"><g transform="translate(178.344239, 97.368889)"><g><path d="M 4.214844 0 L 17.8125 0 L 17.8125 -46.292969 L 63.074219 0 L 81.832031 0 L 81.832031 -60.234375 L 68.234375 -60.234375 L 68.234375 -13.941406 L 23.0625 -60.234375 L 4.214844 -60.234375 Z M 4.214844 0 "/></g></g></g><g fill="rgb(100%, 75.689697%, 69.799805%)" fill-opacity="0.302"><g transform="translate(264.38325, 97.368889)"><g><path d="M 42.078125 0.859375 C 68.492188 0.859375 79.9375 -9.292969 79.9375 -30.203125 L 79.9375 -60.234375 L 66.34375 -60.234375 L 66.34375 -30.203125 C 66.34375 -21.339844 64.019531 -10.582031 42.078125 -10.582031 C 20.136719 -10.582031 17.8125 -21.253906 17.8125 -30.203125 L 17.8125 -60.234375 L 4.214844 -60.234375 L 4.214844 -30.203125 C 4.214844 -9.207031 15.574219 0.859375 42.078125 0.859375 Z M 42.078125 0.859375 "/></g></g></g><g fill="rgb(100%, 75.689697%, 69.799805%)" fill-opacity="0.302"><g transform="translate(348.529409, 97.368889)"><g><path d="M 3.355469 0 L 18.414062 0 L 25.726562 -13.335938 L 64.105469 -13.335938 L 71.417969 0 L 86.476562 0 L 53.695312 -60.234375 L 36.140625 -60.234375 Z M 30.976562 -23.835938 L 44.917969 -49.132812 L 58.855469 -23.835938 Z M 30.976562 -23.835938 "/></g></g></g><g fill="rgb(100%, 75.689697%, 69.799805%)" fill-opacity="0.302"><g transform="translate(438.354126, 97.368889)"><g><path d="M 39.238281 0.859375 C 52.230469 0.859375 61.523438 -3.355469 67.375 -9.722656 L 67.804688 0 L 78.820312 0 L 78.820312 -32.183594 L 40.785156 -32.183594 L 40.785156 -22.628906 L 65.050781 -22.628906 C 64.878906 -17.984375 58.597656 -9.894531 41.820312 -9.894531 C 19.964844 -9.894531 16.953125 -22.628906 16.953125 -29.945312 C 16.953125 -37.171875 19.878906 -49.648438 41.820312 -49.648438 C 60.0625 -49.648438 64.191406 -41.820312 65.050781 -36.828125 L 78.820312 -36.828125 C 77.871094 -51.371094 65.914062 -61.09375 41.820312 -61.09375 C 17.039062 -61.09375 3.355469 -49.820312 3.355469 -30.117188 C 3.355469 -10.410156 17.039062 0.859375 39.238281 0.859375 Z M 39.238281 0.859375 "/></g></g></g><g fill="rgb(100%, 75.689697%, 69.799805%)" fill-opacity="0.302"><g transform="translate(520.521372, 97.368889)"><g><path d="M 4.214844 0 L 67.890625 0 L 67.890625 -10.929688 L 17.8125 -10.929688 L 17.8125 -24.953125 L 67.890625 -24.953125 L 67.890625 -35.28125 L 17.8125 -35.28125 L 17.8125 -49.304688 L 67.890625 -49.304688 L 67.890625 -60.234375 L 4.214844 -60.234375 Z M 4.214844 0 "/></g></g></g><g fill="rgb(100%, 75.689697%, 69.799805%)" fill-opacity="0.302"><g transform="translate(591.761664, 97.368889)"><g><path d="M 43.109375 0.859375 C 64.621094 0.859375 80.28125 -2.066406 80.28125 -18.070312 C 80.28125 -33.214844 65.566406 -34.417969 41.820312 -35.796875 C 23.148438 -36.914062 19.101562 -38.117188 19.101562 -43.367188 C 19.101562 -48.359375 23.148438 -50.164062 39.582031 -50.164062 C 57.050781 -50.164062 64.105469 -48.1875 64.105469 -40.613281 L 77.699219 -40.613281 C 77.699219 -55.414062 63.847656 -61.09375 41.304688 -61.09375 C 19.101562 -61.09375 5.507812 -57.308594 5.507812 -44.054688 C 5.507812 -30.632812 15.917969 -26.589844 41.820312 -25.296875 C 62.816406 -24.179688 66.6875 -23.320312 66.6875 -17.554688 C 66.6875 -12.21875 60.921875 -10.066406 43.96875 -10.066406 C 22.886719 -10.066406 16.953125 -13.335938 16.953125 -20.652344 L 3.355469 -20.652344 C 3.355469 -3.355469 18.414062 0.859375 43.109375 0.859375 Z M 43.109375 0.859375 "/></g></g></g><g fill="rgb(100%, 75.689697%, 69.799805%)" fill-opacity="0.302"><g transform="translate(675.391557, 97.368889)"><g/></g></g><g fill="rgb(100%, 75.689697%, 69.799805%)" fill-opacity="0.302"><g transform="translate(716.087981, 97.368889)"><g><path d="M 3.355469 0 L 18.414062 0 L 25.726562 -13.335938 L 64.105469 -13.335938 L 71.417969 0 L 86.476562 0 L 53.695312 -60.234375 L 36.140625 -60.234375 Z M 30.976562 -23.835938 L 44.917969 -49.132812 L 58.855469 -23.835938 Z M 30.976562 -23.835938 "/></g></g></g><g fill="rgb(100%, 75.689697%, 69.799805%)" fill-opacity="0.302"><g transform="translate(805.912744, 97.368889)"><g><path d="M 4.214844 0 L 17.8125 0 L 17.8125 -46.292969 L 63.074219 0 L 81.832031 0 L 81.832031 -60.234375 L 68.234375 -60.234375 L 68.234375 -13.941406 L 23.0625 -60.234375 L 4.214844 -60.234375 Z M 4.214844 0 "/></g></g></g><g fill="rgb(100%, 75.689697%, 69.799805%)" fill-opacity="0.302"><g transform="translate(891.95171, 97.368889)"><g><path d="M 4.214844 0 L 47.757812 0 C 63.503906 0 77.183594 -9.636719 77.183594 -30.117188 C 77.183594 -50.597656 63.503906 -60.234375 47.757812 -60.234375 L 4.214844 -60.234375 Z M 17.8125 -11.445312 L 17.8125 -48.789062 L 42.078125 -48.789062 C 55.671875 -48.789062 63.589844 -45.691406 63.589844 -30.117188 C 63.589844 -14.542969 55.671875 -11.445312 42.078125 -11.445312 Z M 17.8125 -11.445312 "/></g></g></g><g fill="rgb(100%, 75.689697%, 69.799805%)" fill-opacity="0.302"><g transform="translate(972.484237, 97.368889)"><g/></g></g><g fill="rgb(100%, 75.689697%, 69.799805%)" fill-opacity="0.302"><g transform="translate(1013.180707, 97.368889)"><g><path d="M 33.558594 0 L 47.152344 0 L 47.152344 -48.789062 L 77.355469 -48.789062 L 77.355469 -60.234375 L 3.355469 -60.234375 L 3.355469 -48.789062 L 33.558594 -48.789062 Z M 33.558594 0 "/></g></g></g><g fill="rgb(100%, 75.689697%, 69.799805%)" fill-opacity="0.302"><g transform="translate(1093.885261, 97.368889)"><g><path d="M 41.214844 0.859375 C 67.632812 0.859375 79.078125 -10.582031 79.078125 -30.203125 C 79.078125 -49.734375 67.632812 -61.09375 41.214844 -61.09375 C 14.714844 -61.09375 3.355469 -49.820312 3.355469 -30.203125 C 3.355469 -10.496094 14.714844 0.859375 41.214844 0.859375 Z M 41.214844 -10.582031 C 24.265625 -10.582031 16.953125 -16.261719 16.953125 -30.203125 C 16.953125 -44.054688 24.179688 -49.648438 41.214844 -49.648438 C 58.253906 -49.648438 65.480469 -43.96875 65.480469 -30.203125 C 65.480469 -16.347656 58.167969 -10.582031 41.214844 -10.582031 Z M 41.214844 -10.582031 "/></g></g></g><g fill="rgb(100%, 75.689697%, 69.799805%)" fill-opacity="0.302"><g transform="translate(1176.310641, 97.368889)"><g><path d="M 41.214844 0.859375 C 67.632812 0.859375 79.078125 -10.582031 79.078125 -30.203125 C 79.078125 -49.734375 67.632812 -61.09375 41.214844 -61.09375 C 14.714844 -61.09375 3.355469 -49.820312 3.355469 -30.203125 C 3.355469 -10.496094 14.714844 0.859375 41.214844 0.859375 Z M 41.214844 -10.582031 C 24.265625 -10.582031 16.953125 -16.261719 16.953125 -30.203125 C 16.953125 -44.054688 24.179688 -49.648438 41.214844 -49.648438 C 58.253906 -49.648438 65.480469 -43.96875 65.480469 -30.203125 C 65.480469 -16.347656 58.167969 -10.582031 41.214844 -10.582031 Z M 41.214844 -10.582031 "/></g></g></g><g fill="rgb(100%, 75.689697%, 69.799805%)" fill-opacity="0.302"><g transform="translate(1258.736021, 97.368889)"><g><path d="M 4.214844 0 L 66.171875 0 L 66.171875 -11.445312 L 17.8125 -11.445312 L 17.8125 -60.234375 L 4.214844 -60.234375 Z M 4.214844 0 "/></g></g></g><g fill="rgb(100%, 75.689697%, 69.799805%)" fill-opacity="0.302"><g transform="translate(1328.255487, 97.368889)"><g><path d="M 43.109375 0.859375 C 64.621094 0.859375 80.28125 -2.066406 80.28125 -18.070312 C 80.28125 -33.214844 65.566406 -34.417969 41.820312 -35.796875 C 23.148438 -36.914062 19.101562 -38.117188 19.101562 -43.367188 C 19.101562 -48.359375 23.148438 -50.164062 39.582031 -50.164062 C 57.050781 -50.164062 64.105469 -48.1875 64.105469 -40.613281 L 77.699219 -40.613281 C 77.699219 -55.414062 63.847656 -61.09375 41.304688 -61.09375 C 19.101562 -61.09375 5.507812 -57.308594 5.507812 -44.054688 C 5.507812 -30.632812 15.917969 -26.589844 41.820312 -25.296875 C 62.816406 -24.179688 66.6875 -23.320312 66.6875 -17.554688 C 66.6875 -12.21875 60.921875 -10.066406 43.96875 -10.066406 C 22.886719 -10.066406 16.953125 -13.335938 16.953125 -20.652344 L 3.355469 -20.652344 C 3.355469 -3.355469 18.414062 0.859375 43.109375 0.859375 Z M 43.109375 0.859375 "/></g></g></g><g fill="rgb(100%, 75.689697%, 69.799805%)" fill-opacity="0.502"><g transform="translate(21.277354, 98.335565)"><g><path d="M 4.214844 0 L 66.171875 0 L 66.171875 -11.445312 L 17.8125 -11.445312 L 17.8125 -60.234375 L 4.214844 -60.234375 Z M 4.214844 0 "/></g></g></g><g fill="rgb(100%, 75.689697%, 69.799805%)" fill-opacity="0.502"><g transform="translate(90.796866, 98.335565)"><g><path d="M 3.355469 0 L 18.414062 0 L 25.726562 -13.335938 L 64.105469 -13.335938 L 71.417969 0 L 86.476562 0 L 53.695312 -60.234375 L 36.140625 -60.234375 Z M 30.976562 -23.835938 L 44.917969 -49.132812 L 58.855469 -23.835938 Z M 30.976562 -23.835938 "/></g></g></g><g fill="rgb(100%, 75.689697%, 69.799805%)" fill-opacity="0.502"><g transform="translate(180.621583, 98.335565)"><g><path d="M 4.214844 0 L 17.8125 0 L 17.8125 -46.292969 L 63.074219 0 L 81.832031 0 L 81.832031 -60.234375 L 68.234375 -60.234375 L 68.234375 -13.941406 L 23.0625 -60.234375 L 4.214844 -60.234375 Z M 4.214844 0 "/></g></g></g><g fill="rgb(100%, 75.689697%, 69.799805%)" fill-opacity="0.502"><g transform="translate(266.660594, 98.335565)"><g><path d="M 42.078125 0.859375 C 68.492188 0.859375 79.9375 -9.292969 79.9375 -30.203125 L 79.9375 -60.234375 L 66.34375 -60.234375 L 66.34375 -30.203125 C 66.34375 -21.339844 64.019531 -10.582031 42.078125 -10.582031 C 20.136719 -10.582031 17.8125 -21.253906 17.8125 -30.203125 L 17.8125 -60.234375 L 4.214844 -60.234375 L 4.214844 -30.203125 C 4.214844 -9.207031 15.574219 0.859375 42.078125 0.859375 Z M 42.078125 0.859375 "/></g></g></g><g fill="rgb(100%, 75.689697%, 69.799805%)" fill-opacity="0.502"><g transform="translate(350.806753, 98.335565)"><g><path d="M 3.355469 0 L 18.414062 0 L 25.726562 -13.335938 L 64.105469 -13.335938 L 71.417969 0 L 86.476562 0 L 53.695312 -60.234375 L 36.140625 -60.234375 Z M 30.976562 -23.835938 L 44.917969 -49.132812 L 58.855469 -23.835938 Z M 30.976562 -23.835938 "/></g></g></g><g fill="rgb(100%, 75.689697%, 69.799805%)" fill-opacity="0.502"><g transform="translate(440.63147, 98.335565)"><g><path d="M 39.238281 0.859375 C 52.230469 0.859375 61.523438 -3.355469 67.375 -9.722656 L 67.804688 0 L 78.820312 0 L 78.820312 -32.183594 L 40.785156 -32.183594 L 40.785156 -22.628906 L 65.050781 -22.628906 C 64.878906 -17.984375 58.597656 -9.894531 41.820312 -9.894531 C 19.964844 -9.894531 16.953125 -22.628906 16.953125 -29.945312 C 16.953125 -37.171875 19.878906 -49.648438 41.820312 -49.648438 C 60.0625 -49.648438 64.191406 -41.820312 65.050781 -36.828125 L 78.820312 -36.828125 C 77.871094 -51.371094 65.914062 -61.09375 41.820312 -61.09375 C 17.039062 -61.09375 3.355469 -49.820312 3.355469 -30.117188 C 3.355469 -10.410156 17.039062 0.859375 39.238281 0.859375 Z M 39.238281 0.859375 "/></g></g></g><g fill="rgb(100%, 75.689697%, 69.799805%)" fill-opacity="0.502"><g transform="translate(522.798716, 98.335565)"><g><path d="M 4.214844 0 L 67.890625 0 L 67.890625 -10.929688 L 17.8125 -10.929688 L 17.8125 -24.953125 L 67.890625 -24.953125 L 67.890625 -35.28125 L 17.8125 -35.28125 L 17.8125 -49.304688 L 67.890625 -49.304688 L 67.890625 -60.234375 L 4.214844 -60.234375 Z M 4.214844 0 "/></g></g></g><g fill="rgb(100%, 75.689697%, 69.799805%)" fill-opacity="0.502"><g transform="translate(594.039008, 98.335565)"><g><path d="M 43.109375 0.859375 C 64.621094 0.859375 80.28125 -2.066406 80.28125 -18.070312 C 80.28125 -33.214844 65.566406 -34.417969 41.820312 -35.796875 C 23.148438 -36.914062 19.101562 -38.117188 19.101562 -43.367188 C 19.101562 -48.359375 23.148438 -50.164062 39.582031 -50.164062 C 57.050781 -50.164062 64.105469 -48.1875 64.105469 -40.613281 L 77.699219 -40.613281 C 77.699219 -55.414062 63.847656 -61.09375 41.304688 -61.09375 C 19.101562 -61.09375 5.507812 -57.308594 5.507812 -44.054688 C 5.507812 -30.632812 15.917969 -26.589844 41.820312 -25.296875 C 62.816406 -24.179688 66.6875 -23.320312 66.6875 -17.554688 C 66.6875 -12.21875 60.921875 -10.066406 43.96875 -10.066406 C 22.886719 -10.066406 16.953125 -13.335938 16.953125 -20.652344 L 3.355469 -20.652344 C 3.355469 -3.355469 18.414062 0.859375 43.109375 0.859375 Z M 43.109375 0.859375 "/></g></g></g><g fill="rgb(100%, 75.689697%, 69.799805%)" fill-opacity="0.502"><g transform="translate(677.668901, 98.335565)"><g/></g></g><g fill="rgb(100%, 75.689697%, 69.799805%)" fill-opacity="0.502"><g transform="translate(718.365326, 98.335565)"><g><path d="M 3.355469 0 L 18.414062 0 L 25.726562 -13.335938 L 64.105469 -13.335938 L 71.417969 0 L 86.476562 0 L 53.695312 -60.234375 L 36.140625 -60.234375 Z M 30.976562 -23.835938 L 44.917969 -49.132812 L 58.855469 -23.835938 Z M 30.976562 -23.835938 "/></g></g></g><g fill="rgb(100%, 75.689697%, 69.799805%)" fill-opacity="0.502"><g transform="translate(808.190088, 98.335565)"><g><path d="M 4.214844 0 L 17.8125 0 L 17.8125 -46.292969 L 63.074219 0 L 81.832031 0 L 81.832031 -60.234375 L 68.234375 -60.234375 L 68.234375 -13.941406 L 23.0625 -60.234375 L 4.214844 -60.234375 Z M 4.214844 0 "/></g></g></g><g fill="rgb(100%, 75.689697%, 69.799805%)" fill-opacity="0.502"><g transform="translate(894.229054, 98.335565)"><g><path d="M 4.214844 0 L 47.757812 0 C 63.503906 0 77.183594 -9.636719 77.183594 -30.117188 C 77.183594 -50.597656 63.503906 -60.234375 47.757812 -60.234375 L 4.214844 -60.234375 Z M 17.8125 -11.445312 L 17.8125 -48.789062 L 42.078125 -48.789062 C 55.671875 -48.789062 63.589844 -45.691406 63.589844 -30.117188 C 63.589844 -14.542969 55.671875 -11.445312 42.078125 -11.445312 Z M 17.8125 -11.445312 "/></g></g></g><g fill="rgb(100%, 75.689697%, 69.799805%)" fill-opacity="0.502"><g transform="translate(974.761581, 98.335565)"><g/></g></g><g fill="rgb(100%, 75.689697%, 69.799805%)" fill-opacity="0.502"><g transform="translate(1015.458051, 98.335565)"><g><path d="M 33.558594 0 L 47.152344 0 L 47.152344 -48.789062 L 77.355469 -48.789062 L 77.355469 -60.234375 L 3.355469 -60.234375 L 3.355469 -48.789062 L 33.558594 -48.789062 Z M 33.558594 0 "/></g></g></g><g fill="rgb(100%, 75.689697%, 69.799805%)" fill-opacity="0.502"><g transform="translate(1096.162606, 98.335565)"><g><path d="M 41.214844 0.859375 C 67.632812 0.859375 79.078125 -10.582031 79.078125 -30.203125 C 79.078125 -49.734375 67.632812 -61.09375 41.214844 -61.09375 C 14.714844 -61.09375 3.355469 -49.820312 3.355469 -30.203125 C 3.355469 -10.496094 14.714844 0.859375 41.214844 0.859375 Z M 41.214844 -10.582031 C 24.265625 -10.582031 16.953125 -16.261719 16.953125 -30.203125 C 16.953125 -44.054688 24.179688 -49.648438 41.214844 -49.648438 C 58.253906 -49.648438 65.480469 -43.96875 65.480469 -30.203125 C 65.480469 -16.347656 58.167969 -10.582031 41.214844 -10.582031 Z M 41.214844 -10.582031 "/></g></g></g><g fill="rgb(100%, 75.689697%, 69.799805%)" fill-opacity="0.502"><g transform="translate(1178.587985, 98.335565)"><g><path d="M 41.214844 0.859375 C 67.632812 0.859375 79.078125 -10.582031 79.078125 -30.203125 C 79.078125 -49.734375 67.632812 -61.09375 41.214844 -61.09375 C 14.714844 -61.09375 3.355469 -49.820312 3.355469 -30.203125 C 3.355469 -10.496094 14.714844 0.859375 41.214844 0.859375 Z M 41.214844 -10.582031 C 24.265625 -10.582031 16.953125 -16.261719 16.953125 -30.203125 C 16.953125 -44.054688 24.179688 -49.648438 41.214844 -49.648438 C 58.253906 -49.648438 65.480469 -43.96875 65.480469 -30.203125 C 65.480469 -16.347656 58.167969 -10.582031 41.214844 -10.582031 Z M 41.214844 -10.582031 "/></g></g></g><g fill="rgb(100%, 75.689697%, 69.799805%)" fill-opacity="0.502"><g transform="translate(1261.013365, 98.335565)"><g><path d="M 4.214844 0 L 66.171875 0 L 66.171875 -11.445312 L 17.8125 -11.445312 L 17.8125 -60.234375 L 4.214844 -60.234375 Z M 4.214844 0 "/></g></g></g><g fill="rgb(100%, 75.689697%, 69.799805%)" fill-opacity="0.502"><g transform="translate(1330.532832, 98.335565)"><g><path d="M 43.109375 0.859375 C 64.621094 0.859375 80.28125 -2.066406 80.28125 -18.070312 C 80.28125 -33.214844 65.566406 -34.417969 41.820312 -35.796875 C 23.148438 -36.914062 19.101562 -38.117188 19.101562 -43.367188 C 19.101562 -48.359375 23.148438 -50.164062 39.582031 -50.164062 C 57.050781 -50.164062 64.105469 -48.1875 64.105469 -40.613281 L 77.699219 -40.613281 C 77.699219 -55.414062 63.847656 -61.09375 41.304688 -61.09375 C 19.101562 -61.09375 5.507812 -57.308594 5.507812 -44.054688 C 5.507812 -30.632812 15.917969 -26.589844 41.820312 -25.296875 C 62.816406 -24.179688 66.6875 -23.320312 66.6875 -17.554688 C 66.6875 -12.21875 60.921875 -10.066406 43.96875 -10.066406 C 22.886719 -10.066406 16.953125 -13.335938 16.953125 -20.652344 L 3.355469 -20.652344 C 3.355469 -3.355469 18.414062 0.859375 43.109375 0.859375 Z M 43.109375 0.859375 "/></g></g></g><g fill="rgb(100%, 100%, 100%)" fill-opacity="1"><g transform="translate(23.554698, 99.302241)"><g><path d="M 4.214844 0 L 66.171875 0 L 66.171875 -11.445312 L 17.8125 -11.445312 L 17.8125 -60.234375 L 4.214844 -60.234375 Z M 4.214844 0 "/></g></g></g><g fill="rgb(100%, 100%, 100%)" fill-opacity="1"><g transform="translate(93.07421, 99.302241)"><g><path d="M 3.355469 0 L 18.414062 0 L 25.726562 -13.335938 L 64.105469 -13.335938 L 71.417969 0 L 86.476562 0 L 53.695312 -60.234375 L 36.140625 -60.234375 Z M 30.976562 -23.835938 L 44.917969 -49.132812 L 58.855469 -23.835938 Z M 30.976562 -23.835938 "/></g></g></g><g fill="rgb(100%, 100%, 100%)" fill-opacity="1"><g transform="translate(182.898927, 99.302241)"><g><path d="M 4.214844 0 L 17.8125 0 L 17.8125 -46.292969 L 63.074219 0 L 81.832031 0 L 81.832031 -60.234375 L 68.234375 -60.234375 L 68.234375 -13.941406 L 23.0625 -60.234375 L 4.214844 -60.234375 Z M 4.214844 0 "/></g></g></g><g fill="rgb(100%, 100%, 100%)" fill-opacity="1"><g transform="translate(268.937939, 99.302241)"><g><path d="M 42.078125 0.859375 C 68.492188 0.859375 79.9375 -9.292969 79.9375 -30.203125 L 79.9375 -60.234375 L 66.34375 -60.234375 L 66.34375 -30.203125 C 66.34375 -21.339844 64.019531 -10.582031 42.078125 -10.582031 C 20.136719 -10.582031 17.8125 -21.253906 17.8125 -30.203125 L 17.8125 -60.234375 L 4.214844 -60.234375 L 4.214844 -30.203125 C 4.214844 -9.207031 15.574219 0.859375 42.078125 0.859375 Z M 42.078125 0.859375 "/></g></g></g><g fill="rgb(100%, 100%, 100%)" fill-opacity="1"><g transform="translate(353.084097, 99.302241)"><g><path d="M 3.355469 0 L 18.414062 0 L 25.726562 -13.335938 L 64.105469 -13.335938 L 71.417969 0 L 86.476562 0 L 53.695312 -60.234375 L 36.140625 -60.234375 Z M 30.976562 -23.835938 L 44.917969 -49.132812 L 58.855469 -23.835938 Z M 30.976562 -23.835938 "/></g></g></g><g fill="rgb(100%, 100%, 100%)" fill-opacity="1"><g transform="translate(442.908814, 99.302241)"><g><path d="M 39.238281 0.859375 C 52.230469 0.859375 61.523438 -3.355469 67.375 -9.722656 L 67.804688 0 L 78.820312 0 L 78.820312 -32.183594 L 40.785156 -32.183594 L 40.785156 -22.628906 L 65.050781 -22.628906 C 64.878906 -17.984375 58.597656 -9.894531 41.820312 -9.894531 C 19.964844 -9.894531 16.953125 -22.628906 16.953125 -29.945312 C 16.953125 -37.171875 19.878906 -49.648438 41.820312 -49.648438 C 60.0625 -49.648438 64.191406 -41.820312 65.050781 -36.828125 L 78.820312 -36.828125 C 77.871094 -51.371094 65.914062 -61.09375 41.820312 -61.09375 C 17.039062 -61.09375 3.355469 -49.820312 3.355469 -30.117188 C 3.355469 -10.410156 17.039062 0.859375 39.238281 0.859375 Z M 39.238281 0.859375 "/></g></g></g><g fill="rgb(100%, 100%, 100%)" fill-opacity="1"><g transform="translate(525.076061, 99.302241)"><g><path d="M 4.214844 0 L 67.890625 0 L 67.890625 -10.929688 L 17.8125 -10.929688 L 17.8125 -24.953125 L 67.890625 -24.953125 L 67.890625 -35.28125 L 17.8125 -35.28125 L 17.8125 -49.304688 L 67.890625 -49.304688 L 67.890625 -60.234375 L 4.214844 -60.234375 Z M 4.214844 0 "/></g></g></g><g fill="rgb(100%, 100%, 100%)" fill-opacity="1"><g transform="translate(596.316352, 99.302241)"><g><path d="M 43.109375 0.859375 C 64.621094 0.859375 80.28125 -2.066406 80.28125 -18.070312 C 80.28125 -33.214844 65.566406 -34.417969 41.820312 -35.796875 C 23.148438 -36.914062 19.101562 -38.117188 19.101562 -43.367188 C 19.101562 -48.359375 23.148438 -50.164062 39.582031 -50.164062 C 57.050781 -50.164062 64.105469 -48.1875 64.105469 -40.613281 L 77.699219 -40.613281 C 77.699219 -55.414062 63.847656 -61.09375 41.304688 -61.09375 C 19.101562 -61.09375 5.507812 -57.308594 5.507812 -44.054688 C 5.507812 -30.632812 15.917969 -26.589844 41.820312 -25.296875 C 62.816406 -24.179688 66.6875 -23.320312 66.6875 -17.554688 C 66.6875 -12.21875 60.921875 -10.066406 43.96875 -10.066406 C 22.886719 -10.066406 16.953125 -13.335938 16.953125 -20.652344 L 3.355469 -20.652344 C 3.355469 -3.355469 18.414062 0.859375 43.109375 0.859375 Z M 43.109375 0.859375 "/></g></g></g><g fill="rgb(100%, 100%, 100%)" fill-opacity="1"><g transform="translate(679.946246, 99.302241)"><g/></g></g><g fill="rgb(100%, 100%, 100%)" fill-opacity="1"><g transform="translate(720.64267, 99.302241)"><g><path d="M 3.355469 0 L 18.414062 0 L 25.726562 -13.335938 L 64.105469 -13.335938 L 71.417969 0 L 86.476562 0 L 53.695312 -60.234375 L 36.140625 -60.234375 Z M 30.976562 -23.835938 L 44.917969 -49.132812 L 58.855469 -23.835938 Z M 30.976562 -23.835938 "/></g></g></g><g fill="rgb(100%, 100%, 100%)" fill-opacity="1"><g transform="translate(810.467432, 99.302241)"><g><path d="M 4.214844 0 L 17.8125 0 L 17.8125 -46.292969 L 63.074219 0 L 81.832031 0 L 81.832031 -60.234375 L 68.234375 -60.234375 L 68.234375 -13.941406 L 23.0625 -60.234375 L 4.214844 -60.234375 Z M 4.214844 0 "/></g></g></g><g fill="rgb(100%, 100%, 100%)" fill-opacity="1"><g transform="translate(896.506398, 99.302241)"><g><path d="M 4.214844 0 L 47.757812 0 C 63.503906 0 77.183594 -9.636719 77.183594 -30.117188 C 77.183594 -50.597656 63.503906 -60.234375 47.757812 -60.234375 L 4.214844 -60.234375 Z M 17.8125 -11.445312 L 17.8125 -48.789062 L 42.078125 -48.789062 C 55.671875 -48.789062 63.589844 -45.691406 63.589844 -30.117188 C 63.589844 -14.542969 55.671875 -11.445312 42.078125 -11.445312 Z M 17.8125 -11.445312 "/></g></g></g><g fill="rgb(100%, 100%, 100%)" fill-opacity="1"><g transform="translate(977.038925, 99.302241)"><g/></g></g><g fill="rgb(100%, 100%, 100%)" fill-opacity="1"><g transform="translate(1017.735395, 99.302241)"><g><path d="M 33.558594 0 L 47.152344 0 L 47.152344 -48.789062 L 77.355469 -48.789062 L 77.355469 -60.234375 L 3.355469 -60.234375 L 3.355469 -48.789062 L 33.558594 -48.789062 Z M 33.558594 0 "/></g></g></g><g fill="rgb(100%, 100%, 100%)" fill-opacity="1"><g transform="translate(1098.43995, 99.302241)"><g><path d="M 41.214844 0.859375 C 67.632812 0.859375 79.078125 -10.582031 79.078125 -30.203125 C 79.078125 -49.734375 67.632812 -61.09375 41.214844 -61.09375 C 14.714844 -61.09375 3.355469 -49.820312 3.355469 -30.203125 C 3.355469 -10.496094 14.714844 0.859375 41.214844 0.859375 Z M 41.214844 -10.582031 C 24.265625 -10.582031 16.953125 -16.261719 16.953125 -30.203125 C 16.953125 -44.054688 24.179688 -49.648438 41.214844 -49.648438 C 58.253906 -49.648438 65.480469 -43.96875 65.480469 -30.203125 C 65.480469 -16.347656 58.167969 -10.582031 41.214844 -10.582031 Z M 41.214844 -10.582031 "/></g></g></g><g fill="rgb(100%, 100%, 100%)" fill-opacity="1"><g transform="translate(1180.86533, 99.302241)"><g><path d="M 41.214844 0.859375 C 67.632812 0.859375 79.078125 -10.582031 79.078125 -30.203125 C 79.078125 -49.734375 67.632812 -61.09375 41.214844 -61.09375 C 14.714844 -61.09375 3.355469 -49.820312 3.355469 -30.203125 C 3.355469 -10.496094 14.714844 0.859375 41.214844 0.859375 Z M 41.214844 -10.582031 C 24.265625 -10.582031 16.953125 -16.261719 16.953125 -30.203125 C 16.953125 -44.054688 24.179688 -49.648438 41.214844 -49.648438 C 58.253906 -49.648438 65.480469 -43.96875 65.480469 -30.203125 C 65.480469 -16.347656 58.167969 -10.582031 41.214844 -10.582031 Z M 41.214844 -10.582031 "/></g></g></g><g fill="rgb(100%, 100%, 100%)" fill-opacity="1"><g transform="translate(1263.29071, 99.302241)"><g><path d="M 4.214844 0 L 66.171875 0 L 66.171875 -11.445312 L 17.8125 -11.445312 L 17.8125 -60.234375 L 4.214844 -60.234375 Z M 4.214844 0 "/></g></g></g><g fill="rgb(100%, 100%, 100%)" fill-opacity="1"><g transform="translate(1332.810176, 99.302241)"><g><path d="M 43.109375 0.859375 C 64.621094 0.859375 80.28125 -2.066406 80.28125 -18.070312 C 80.28125 -33.214844 65.566406 -34.417969 41.820312 -35.796875 C 23.148438 -36.914062 19.101562 -38.117188 19.101562 -43.367188 C 19.101562 -48.359375 23.148438 -50.164062 39.582031 -50.164062 C 57.050781 -50.164062 64.105469 -48.1875 64.105469 -40.613281 L 77.699219 -40.613281 C 77.699219 -55.414062 63.847656 -61.09375 41.304688 -61.09375 C 19.101562 -61.09375 5.507812 -57.308594 5.507812 -44.054688 C 5.507812 -30.632812 15.917969 -26.589844 41.820312 -25.296875 C 62.816406 -24.179688 66.6875 -23.320312 66.6875 -17.554688 C 66.6875 -12.21875 60.921875 -10.066406 43.96875 -10.066406 C 22.886719 -10.066406 16.953125 -13.335938 16.953125 -20.652344 L 3.355469 -20.652344 C 3.355469 -3.355469 18.414062 0.859375 43.109375 0.859375 Z M 43.109375 0.859375 "/></g></g></g></svg>