<svg xmlns="http://www.w3.org/2000/svg" xmlns:xlink="http://www.w3.org/1999/xlink" width="1200" zoomAndPan="magnify" viewBox="0 0 900 149.999998" height="200" preserveAspectRatio="xMidYMid meet" version="1.0"><defs><g/></defs><g fill="rgb(100%, 75.689697%, 69.799805%)" fill-opacity="0.302"><g transform="translate(-4.652664, 107.587888)"><g><path d="M 5.816406 0 L 24.566406 0 L 24.566406 -60.878906 L 62.421875 0 L 76.542969 0 L 114.28125 -60.878906 L 114.28125 0 L 133.03125 0 L 133.03125 -83.070312 L 106.6875 -83.070312 L 69.421875 -21.71875 L 32.160156 -83.070312 L 5.816406 -83.070312 Z M 5.816406 0 "/></g></g></g><g fill="rgb(100%, 75.689697%, 69.799805%)" fill-opacity="0.302"><g transform="translate(134.184381, 107.587888)"><g><path d="M 52.929688 0 L 71.679688 0 L 71.679688 -27.292969 L 119.976562 -83.070312 L 96.957031 -83.070312 L 62.304688 -43.195312 L 27.769531 -83.070312 L 4.628906 -83.070312 L 52.929688 -27.292969 Z M 52.929688 0 "/></g></g></g><g fill="rgb(100%, 75.689697%, 69.799805%)" fill-opacity="0.302"><g transform="translate(258.781729, 107.587888)"><g/></g></g><g fill="rgb(100%, 75.689697%, 69.799805%)" fill-opacity="0.302"><g transform="translate(314.909868, 107.587888)"><g><path d="M 59.453125 1.1875 C 89.121094 1.1875 110.722656 -2.847656 110.722656 -24.921875 C 110.722656 -45.808594 90.429688 -47.46875 57.675781 -49.367188 C 31.921875 -50.910156 26.34375 -52.570312 26.34375 -59.8125 C 26.34375 -66.695312 31.921875 -69.1875 54.589844 -69.1875 C 78.679688 -69.1875 88.410156 -66.457031 88.410156 -56.011719 L 107.160156 -56.011719 C 107.160156 -76.425781 88.054688 -84.257812 56.960938 -84.257812 C 26.34375 -84.257812 7.59375 -79.035156 7.59375 -60.761719 C 7.59375 -42.246094 21.953125 -36.667969 57.675781 -34.890625 C 86.632812 -33.347656 91.972656 -32.160156 91.972656 -24.210938 C 91.972656 -16.851562 84.019531 -13.882812 60.640625 -13.882812 C 31.566406 -13.882812 23.378906 -18.394531 23.378906 -28.480469 L 4.628906 -28.480469 C 4.628906 -4.628906 25.394531 1.1875 59.453125 1.1875 Z M 59.453125 1.1875 "/></g></g></g><g fill="rgb(100%, 75.689697%, 69.799805%)" fill-opacity="0.302"><g transform="translate(430.251407, 107.587888)"><g><path d="M 46.28125 0 L 65.03125 0 L 65.03125 -67.289062 L 106.6875 -67.289062 L 106.6875 -83.070312 L 4.628906 -83.070312 L 4.628906 -67.289062 L 46.28125 -67.289062 Z M 46.28125 0 "/></g></g></g><g fill="rgb(100%, 75.689697%, 69.799805%)" fill-opacity="0.302"><g transform="translate(541.558377, 107.587888)"><g><path d="M 4.628906 0 L 25.394531 0 L 35.484375 -18.394531 L 88.410156 -18.394531 L 98.5 0 L 119.265625 0 L 74.050781 -83.070312 L 49.84375 -83.070312 Z M 42.722656 -32.871094 L 61.945312 -67.761719 L 81.171875 -32.871094 Z M 42.722656 -32.871094 "/></g></g></g><g fill="rgb(100%, 75.689697%, 69.799805%)" fill-opacity="0.302"><g transform="translate(665.44373, 107.587888)"><g><path d="M 46.28125 0 L 65.03125 0 L 65.03125 -67.289062 L 106.6875 -67.289062 L 106.6875 -83.070312 L 4.628906 -83.070312 L 4.628906 -67.289062 L 46.28125 -67.289062 Z M 46.28125 0 "/></g></g></g><g fill="rgb(100%, 75.689697%, 69.799805%)" fill-opacity="0.302"><g transform="translate(776.7507, 107.587888)"><g><path d="M 59.453125 1.1875 C 89.121094 1.1875 110.722656 -2.847656 110.722656 -24.921875 C 110.722656 -45.808594 90.429688 -47.46875 57.675781 -49.367188 C 31.921875 -50.910156 26.34375 -52.570312 26.34375 -59.8125 C 26.34375 -66.695312 31.921875 -69.1875 54.589844 -69.1875 C 78.679688 -69.1875 88.410156 -66.457031 88.410156 -56.011719 L 107.160156 -56.011719 C 107.160156 -76.425781 88.054688 -84.257812 56.960938 -84.257812 C 26.34375 -84.257812 7.59375 -79.035156 7.59375 -60.761719 C 7.59375 -42.246094 21.953125 -36.667969 57.675781 -34.890625 C 86.632812 -33.347656 91.972656 -32.160156 91.972656 -24.210938 C 91.972656 -16.851562 84.019531 -13.882812 60.640625 -13.882812 C 31.566406 -13.882812 23.378906 -18.394531 23.378906 -28.480469 L 4.628906 -28.480469 C 4.628906 -4.628906 25.394531 1.1875 59.453125 1.1875 Z M 59.453125 1.1875 "/></g></g></g><g fill="rgb(100%, 75.689697%, 69.799805%)" fill-opacity="0.502"><g transform="translate(-1.511875, 108.921073)"><g><path d="M 5.816406 0 L 24.566406 0 L 24.566406 -60.878906 L 62.421875 0 L 76.542969 0 L 114.28125 -60.878906 L 114.28125 0 L 133.03125 0 L 133.03125 -83.070312 L 106.6875 -83.070312 L 69.421875 -21.71875 L 32.160156 -83.070312 L 5.816406 -83.070312 Z M 5.816406 0 "/></g></g></g><g fill="rgb(100%, 75.689697%, 69.799805%)" fill-opacity="0.502"><g transform="translate(137.325169, 108.921073)"><g><path d="M 52.929688 0 L 71.679688 0 L 71.679688 -27.292969 L 119.976562 -83.070312 L 96.957031 -83.070312 L 62.304688 -43.195312 L 27.769531 -83.070312 L 4.628906 -83.070312 L 52.929688 -27.292969 Z M 52.929688 0 "/></g></g></g><g fill="rgb(100%, 75.689697%, 69.799805%)" fill-opacity="0.502"><g transform="translate(261.922517, 108.921073)"><g/></g></g><g fill="rgb(100%, 75.689697%, 69.799805%)" fill-opacity="0.502"><g transform="translate(318.050657, 108.921073)"><g><path d="M 59.453125 1.1875 C 89.121094 1.1875 110.722656 -2.847656 110.722656 -24.921875 C 110.722656 -45.808594 90.429688 -47.46875 57.675781 -49.367188 C 31.921875 -50.910156 26.34375 -52.570312 26.34375 -59.8125 C 26.34375 -66.695312 31.921875 -69.1875 54.589844 -69.1875 C 78.679688 -69.1875 88.410156 -66.457031 88.410156 -56.011719 L 107.160156 -56.011719 C 107.160156 -76.425781 88.054688 -84.257812 56.960938 -84.257812 C 26.34375 -84.257812 7.59375 -79.035156 7.59375 -60.761719 C 7.59375 -42.246094 21.953125 -36.667969 57.675781 -34.890625 C 86.632812 -33.347656 91.972656 -32.160156 91.972656 -24.210938 C 91.972656 -16.851562 84.019531 -13.882812 60.640625 -13.882812 C 31.566406 -13.882812 23.378906 -18.394531 23.378906 -28.480469 L 4.628906 -28.480469 C 4.628906 -4.628906 25.394531 1.1875 59.453125 1.1875 Z M 59.453125 1.1875 "/></g></g></g><g fill="rgb(100%, 75.689697%, 69.799805%)" fill-opacity="0.502"><g transform="translate(433.392196, 108.921073)"><g><path d="M 46.28125 0 L 65.03125 0 L 65.03125 -67.289062 L 106.6875 -67.289062 L 106.6875 -83.070312 L 4.628906 -83.070312 L 4.628906 -67.289062 L 46.28125 -67.289062 Z M 46.28125 0 "/></g></g></g><g fill="rgb(100%, 75.689697%, 69.799805%)" fill-opacity="0.502"><g transform="translate(544.699166, 108.921073)"><g><path d="M 4.628906 0 L 25.394531 0 L 35.484375 -18.394531 L 88.410156 -18.394531 L 98.5 0 L 119.265625 0 L 74.050781 -83.070312 L 49.84375 -83.070312 Z M 42.722656 -32.871094 L 61.945312 -67.761719 L 81.171875 -32.871094 Z M 42.722656 -32.871094 "/></g></g></g><g fill="rgb(100%, 75.689697%, 69.799805%)" fill-opacity="0.502"><g transform="translate(668.584519, 108.921073)"><g><path d="M 46.28125 0 L 65.03125 0 L 65.03125 -67.289062 L 106.6875 -67.289062 L 106.6875 -83.070312 L 4.628906 -83.070312 L 4.628906 -67.289062 L 46.28125 -67.289062 Z M 46.28125 0 "/></g></g></g><g fill="rgb(100%, 75.689697%, 69.799805%)" fill-opacity="0.502"><g transform="translate(779.891489, 108.921073)"><g><path d="M 59.453125 1.1875 C 89.121094 1.1875 110.722656 -2.847656 110.722656 -24.921875 C 110.722656 -45.808594 90.429688 -47.46875 57.675781 -49.367188 C 31.921875 -50.910156 26.34375 -52.570312 26.34375 -59.8125 C 26.34375 -66.695312 31.921875 -69.1875 54.589844 -69.1875 C 78.679688 -69.1875 88.410156 -66.457031 88.410156 -56.011719 L 107.160156 -56.011719 C 107.160156 -76.425781 88.054688 -84.257812 56.960938 -84.257812 C 26.34375 -84.257812 7.59375 -79.035156 7.59375 -60.761719 C 7.59375 -42.246094 21.953125 -36.667969 57.675781 -34.890625 C 86.632812 -33.347656 91.972656 -32.160156 91.972656 -24.210938 C 91.972656 -16.851562 84.019531 -13.882812 60.640625 -13.882812 C 31.566406 -13.882812 23.378906 -18.394531 23.378906 -28.480469 L 4.628906 -28.480469 C 4.628906 -4.628906 25.394531 1.1875 59.453125 1.1875 Z M 59.453125 1.1875 "/></g></g></g><g fill="rgb(100%, 98.039246%, 93.728638%)" fill-opacity="1"><g transform="translate(1.628914, 110.254258)"><g><path d="M 5.816406 0 L 24.566406 0 L 24.566406 -60.878906 L 62.421875 0 L 76.542969 0 L 114.28125 -60.878906 L 114.28125 0 L 133.03125 0 L 133.03125 -83.070312 L 106.6875 -83.070312 L 69.421875 -21.71875 L 32.160156 -83.070312 L 5.816406 -83.070312 Z M 5.816406 0 "/></g></g></g><g fill="rgb(100%, 98.039246%, 93.728638%)" fill-opacity="1"><g transform="translate(140.465958, 110.254258)"><g><path d="M 52.929688 0 L 71.679688 0 L 71.679688 -27.292969 L 119.976562 -83.070312 L 96.957031 -83.070312 L 62.304688 -43.195312 L 27.769531 -83.070312 L 4.628906 -83.070312 L 52.929688 -27.292969 Z M 52.929688 0 "/></g></g></g><g fill="rgb(100%, 98.039246%, 93.728638%)" fill-opacity="1"><g transform="translate(265.063306, 110.254258)"><g/></g></g><g fill="rgb(100%, 98.039246%, 93.728638%)" fill-opacity="1"><g transform="translate(321.191446, 110.254258)"><g><path d="M 59.453125 1.1875 C 89.121094 1.1875 110.722656 -2.847656 110.722656 -24.921875 C 110.722656 -45.808594 90.429688 -47.46875 57.675781 -49.367188 C 31.921875 -50.910156 26.34375 -52.570312 26.34375 -59.8125 C 26.34375 -66.695312 31.921875 -69.1875 54.589844 -69.1875 C 78.679688 -69.1875 88.410156 -66.457031 88.410156 -56.011719 L 107.160156 -56.011719 C 107.160156 -76.425781 88.054688 -84.257812 56.960938 -84.257812 C 26.34375 -84.257812 7.59375 -79.035156 7.59375 -60.761719 C 7.59375 -42.246094 21.953125 -36.667969 57.675781 -34.890625 C 86.632812 -33.347656 91.972656 -32.160156 91.972656 -24.210938 C 91.972656 -16.851562 84.019531 -13.882812 60.640625 -13.882812 C 31.566406 -13.882812 23.378906 -18.394531 23.378906 -28.480469 L 4.628906 -28.480469 C 4.628906 -4.628906 25.394531 1.1875 59.453125 1.1875 Z M 59.453125 1.1875 "/></g></g></g><g fill="rgb(100%, 98.039246%, 93.728638%)" fill-opacity="1"><g transform="translate(436.532984, 110.254258)"><g><path d="M 46.28125 0 L 65.03125 0 L 65.03125 -67.289062 L 106.6875 -67.289062 L 106.6875 -83.070312 L 4.628906 -83.070312 L 4.628906 -67.289062 L 46.28125 -67.289062 Z M 46.28125 0 "/></g></g></g><g fill="rgb(100%, 98.039246%, 93.728638%)" fill-opacity="1"><g transform="translate(547.839954, 110.254258)"><g><path d="M 4.628906 0 L 25.394531 0 L 35.484375 -18.394531 L 88.410156 -18.394531 L 98.5 0 L 119.265625 0 L 74.050781 -83.070312 L 49.84375 -83.070312 Z M 42.722656 -32.871094 L 61.945312 -67.761719 L 81.171875 -32.871094 Z M 42.722656 -32.871094 "/></g></g></g><g fill="rgb(100%, 98.039246%, 93.728638%)" fill-opacity="1"><g transform="translate(671.725308, 110.254258)"><g><path d="M 46.28125 0 L 65.03125 0 L 65.03125 -67.289062 L 106.6875 -67.289062 L 106.6875 -83.070312 L 4.628906 -83.070312 L 4.628906 -67.289062 L 46.28125 -67.289062 Z M 46.28125 0 "/></g></g></g><g fill="rgb(100%, 98.039246%, 93.728638%)" fill-opacity="1"><g transform="translate(783.032278, 110.254258)"><g><path d="M 59.453125 1.1875 C 89.121094 1.1875 110.722656 -2.847656 110.722656 -24.921875 C 110.722656 -45.808594 90.429688 -47.46875 57.675781 -49.367188 C 31.921875 -50.910156 26.34375 -52.570312 26.34375 -59.8125 C 26.34375 -66.695312 31.921875 -69.1875 54.589844 -69.1875 C 78.679688 -69.1875 88.410156 -66.457031 88.410156 -56.011719 L 107.160156 -56.011719 C 107.160156 -76.425781 88.054688 -84.257812 56.960938 -84.257812 C 26.34375 -84.257812 7.59375 -79.035156 7.59375 -60.761719 C 7.59375 -42.246094 21.953125 -36.667969 57.675781 -34.890625 C 86.632812 -33.347656 91.972656 -32.160156 91.972656 -24.210938 C 91.972656 -16.851562 84.019531 -13.882812 60.640625 -13.882812 C 31.566406 -13.882812 23.378906 -18.394531 23.378906 -28.480469 L 4.628906 -28.480469 C 4.628906 -4.628906 25.394531 1.1875 59.453125 1.1875 Z M 59.453125 1.1875 "/></g></g></g></svg>