<svg xmlns="http://www.w3.org/2000/svg" xmlns:xlink="http://www.w3.org/1999/xlink" width="1500" zoomAndPan="magnify" viewBox="0 0 1125 149.999998" height="200" preserveAspectRatio="xMidYMid meet" version="1.0"><defs><g/></defs><g fill="rgb(100%, 75.689697%, 69.799805%)" fill-opacity="0.302"><g transform="translate(-3.546599, 103.417038)"><g><path d="M 34 0 L 56.046875 0 L 80.066406 -55.523438 L 104.082031 0 L 126.128906 0 L 156.074219 -72.785156 L 138.292969 -72.785156 L 115 -14.867188 L 90.253906 -72.785156 L 69.875 -72.785156 L 45.128906 -14.867188 L 21.835938 -72.785156 L 4.054688 -72.785156 Z M 34 0 "/></g></g></g><g fill="rgb(100%, 75.689697%, 69.799805%)" fill-opacity="0.302"><g transform="translate(156.565162, 103.417038)"><g><path d="M 4.054688 0 L 22.25 0 L 31.089844 -16.117188 L 77.464844 -16.117188 L 86.304688 0 L 104.5 0 L 64.882812 -72.785156 L 43.671875 -72.785156 Z M 37.433594 -28.800781 L 54.277344 -59.371094 L 71.121094 -28.800781 Z M 37.433594 -28.800781 "/></g></g></g><g fill="rgb(100%, 75.689697%, 69.799805%)" fill-opacity="0.302"><g transform="translate(265.108453, 103.417038)"><g><path d="M 5.09375 0 L 21.523438 0 L 21.523438 -55.941406 L 76.21875 0 L 98.886719 0 L 98.886719 -72.785156 L 82.457031 -72.785156 L 82.457031 -16.84375 L 27.867188 -72.785156 L 5.09375 -72.785156 Z M 5.09375 0 "/></g></g></g><g fill="rgb(100%, 75.689697%, 69.799805%)" fill-opacity="0.302"><g transform="translate(369.077128, 103.417038)"><g><path d="M 5.09375 0 L 21.523438 0 L 21.523438 -55.941406 L 76.21875 0 L 98.886719 0 L 98.886719 -72.785156 L 82.457031 -72.785156 L 82.457031 -16.84375 L 27.867188 -72.785156 L 5.09375 -72.785156 Z M 5.09375 0 "/></g></g></g><g fill="rgb(100%, 75.689697%, 69.799805%)" fill-opacity="0.302"><g transform="translate(473.04578, 103.417038)"><g><path d="M 4.054688 0 L 22.25 0 L 31.089844 -16.117188 L 77.464844 -16.117188 L 86.304688 0 L 104.5 0 L 64.882812 -72.785156 L 43.671875 -72.785156 Z M 37.433594 -28.800781 L 54.277344 -59.371094 L 71.121094 -28.800781 Z M 37.433594 -28.800781 "/></g></g></g><g fill="rgb(100%, 75.689697%, 69.799805%)" fill-opacity="0.302"><g transform="translate(581.589048, 103.417038)"><g/></g></g><g fill="rgb(100%, 75.689697%, 69.799805%)" fill-opacity="0.302"><g transform="translate(630.76623, 103.417038)"><g><path d="M 40.550781 0 L 56.980469 0 L 56.980469 -58.957031 L 93.476562 -58.957031 L 93.476562 -72.785156 L 4.054688 -72.785156 L 4.054688 -58.957031 L 40.550781 -58.957031 Z M 40.550781 0 "/></g></g></g><g fill="rgb(100%, 75.689697%, 69.799805%)" fill-opacity="0.302"><g transform="translate(728.288837, 103.417038)"><g><path d="M 4.054688 0 L 22.25 0 L 31.089844 -16.117188 L 77.464844 -16.117188 L 86.304688 0 L 104.5 0 L 64.882812 -72.785156 L 43.671875 -72.785156 Z M 37.433594 -28.800781 L 54.277344 -59.371094 L 71.121094 -28.800781 Z M 37.433594 -28.800781 "/></g></g></g><g fill="rgb(100%, 75.689697%, 69.799805%)" fill-opacity="0.302"><g transform="translate(836.832105, 103.417038)"><g><path d="M 5.09375 0 L 79.960938 0 L 79.960938 -13.828125 L 21.523438 -13.828125 L 21.523438 -72.785156 L 5.09375 -72.785156 Z M 5.09375 0 "/></g></g></g><g fill="rgb(100%, 75.689697%, 69.799805%)" fill-opacity="0.302"><g transform="translate(920.838783, 103.417038)"><g><path d="M 5.09375 0 L 21.523438 0 L 21.523438 -13.933594 L 47.207031 -31.816406 L 81.3125 0 L 104.082031 0 L 59.582031 -40.96875 L 104.082031 -72.785156 L 78.503906 -72.785156 L 21.523438 -32.546875 L 21.523438 -72.785156 L 5.09375 -72.785156 Z M 5.09375 0 "/></g></g></g><g fill="rgb(100%, 75.689697%, 69.799805%)" fill-opacity="0.302"><g transform="translate(1028.966218, 103.417038)"><g><path d="M 31.089844 -21.941406 L 47 -21.941406 C 48.144531 -36.703125 83.496094 -29.945312 83.496094 -52.71875 C 83.496094 -68.316406 68.835938 -73.824219 45.335938 -73.824219 C 22.148438 -73.824219 5.09375 -68.316406 5.09375 -45.4375 L 21.523438 -45.4375 C 21.523438 -56.980469 29.324219 -59.996094 46.375 -59.996094 C 61.453125 -59.996094 67.066406 -56.878906 67.066406 -51.574219 C 67.066406 -37.226562 31.089844 -46.480469 31.089844 -21.941406 Z M 31.089844 0 L 47 0 L 47 -12.6875 L 31.089844 -12.6875 Z M 31.089844 0 "/></g></g></g><g fill="rgb(100%, 75.689697%, 69.799805%)" fill-opacity="0.502"><g transform="translate(-0.794779, 104.585117)"><g><path d="M 34 0 L 56.046875 0 L 80.066406 -55.523438 L 104.082031 0 L 126.128906 0 L 156.074219 -72.785156 L 138.292969 -72.785156 L 115 -14.867188 L 90.253906 -72.785156 L 69.875 -72.785156 L 45.128906 -14.867188 L 21.835938 -72.785156 L 4.054688 -72.785156 Z M 34 0 "/></g></g></g><g fill="rgb(100%, 75.689697%, 69.799805%)" fill-opacity="0.502"><g transform="translate(159.316982, 104.585117)"><g><path d="M 4.054688 0 L 22.25 0 L 31.089844 -16.117188 L 77.464844 -16.117188 L 86.304688 0 L 104.5 0 L 64.882812 -72.785156 L 43.671875 -72.785156 Z M 37.433594 -28.800781 L 54.277344 -59.371094 L 71.121094 -28.800781 Z M 37.433594 -28.800781 "/></g></g></g><g fill="rgb(100%, 75.689697%, 69.799805%)" fill-opacity="0.502"><g transform="translate(267.860272, 104.585117)"><g><path d="M 5.09375 0 L 21.523438 0 L 21.523438 -55.941406 L 76.21875 0 L 98.886719 0 L 98.886719 -72.785156 L 82.457031 -72.785156 L 82.457031 -16.84375 L 27.867188 -72.785156 L 5.09375 -72.785156 Z M 5.09375 0 "/></g></g></g><g fill="rgb(100%, 75.689697%, 69.799805%)" fill-opacity="0.502"><g transform="translate(371.828947, 104.585117)"><g><path d="M 5.09375 0 L 21.523438 0 L 21.523438 -55.941406 L 76.21875 0 L 98.886719 0 L 98.886719 -72.785156 L 82.457031 -72.785156 L 82.457031 -16.84375 L 27.867188 -72.785156 L 5.09375 -72.785156 Z M 5.09375 0 "/></g></g></g><g fill="rgb(100%, 75.689697%, 69.799805%)" fill-opacity="0.502"><g transform="translate(475.7976, 104.585117)"><g><path d="M 4.054688 0 L 22.25 0 L 31.089844 -16.117188 L 77.464844 -16.117188 L 86.304688 0 L 104.5 0 L 64.882812 -72.785156 L 43.671875 -72.785156 Z M 37.433594 -28.800781 L 54.277344 -59.371094 L 71.121094 -28.800781 Z M 37.433594 -28.800781 "/></g></g></g><g fill="rgb(100%, 75.689697%, 69.799805%)" fill-opacity="0.502"><g transform="translate(584.340867, 104.585117)"><g/></g></g><g fill="rgb(100%, 75.689697%, 69.799805%)" fill-opacity="0.502"><g transform="translate(633.518049, 104.585117)"><g><path d="M 40.550781 0 L 56.980469 0 L 56.980469 -58.957031 L 93.476562 -58.957031 L 93.476562 -72.785156 L 4.054688 -72.785156 L 4.054688 -58.957031 L 40.550781 -58.957031 Z M 40.550781 0 "/></g></g></g><g fill="rgb(100%, 75.689697%, 69.799805%)" fill-opacity="0.502"><g transform="translate(731.040657, 104.585117)"><g><path d="M 4.054688 0 L 22.25 0 L 31.089844 -16.117188 L 77.464844 -16.117188 L 86.304688 0 L 104.5 0 L 64.882812 -72.785156 L 43.671875 -72.785156 Z M 37.433594 -28.800781 L 54.277344 -59.371094 L 71.121094 -28.800781 Z M 37.433594 -28.800781 "/></g></g></g><g fill="rgb(100%, 75.689697%, 69.799805%)" fill-opacity="0.502"><g transform="translate(839.583924, 104.585117)"><g><path d="M 5.09375 0 L 79.960938 0 L 79.960938 -13.828125 L 21.523438 -13.828125 L 21.523438 -72.785156 L 5.09375 -72.785156 Z M 5.09375 0 "/></g></g></g><g fill="rgb(100%, 75.689697%, 69.799805%)" fill-opacity="0.502"><g transform="translate(923.590602, 104.585117)"><g><path d="M 5.09375 0 L 21.523438 0 L 21.523438 -13.933594 L 47.207031 -31.816406 L 81.3125 0 L 104.082031 0 L 59.582031 -40.96875 L 104.082031 -72.785156 L 78.503906 -72.785156 L 21.523438 -32.546875 L 21.523438 -72.785156 L 5.09375 -72.785156 Z M 5.09375 0 "/></g></g></g><g fill="rgb(100%, 75.689697%, 69.799805%)" fill-opacity="0.502"><g transform="translate(1031.718038, 104.585117)"><g><path d="M 31.089844 -21.941406 L 47 -21.941406 C 48.144531 -36.703125 83.496094 -29.945312 83.496094 -52.71875 C 83.496094 -68.316406 68.835938 -73.824219 45.335938 -73.824219 C 22.148438 -73.824219 5.09375 -68.316406 5.09375 -45.4375 L 21.523438 -45.4375 C 21.523438 -56.980469 29.324219 -59.996094 46.375 -59.996094 C 61.453125 -59.996094 67.066406 -56.878906 67.066406 -51.574219 C 67.066406 -37.226562 31.089844 -46.480469 31.089844 -21.941406 Z M 31.089844 0 L 47 0 L 47 -12.6875 L 31.089844 -12.6875 Z M 31.089844 0 "/></g></g></g><g fill="rgb(100%, 98.039246%, 93.728638%)" fill-opacity="1"><g transform="translate(1.957041, 105.753195)"><g><path d="M 34 0 L 56.046875 0 L 80.066406 -55.523438 L 104.082031 0 L 126.128906 0 L 156.074219 -72.785156 L 138.292969 -72.785156 L 115 -14.867188 L 90.253906 -72.785156 L 69.875 -72.785156 L 45.128906 -14.867188 L 21.835938 -72.785156 L 4.054688 -72.785156 Z M 34 0 "/></g></g></g><g fill="rgb(100%, 98.039246%, 93.728638%)" fill-opacity="1"><g transform="translate(162.068801, 105.753195)"><g><path d="M 4.054688 0 L 22.25 0 L 31.089844 -16.117188 L 77.464844 -16.117188 L 86.304688 0 L 104.5 0 L 64.882812 -72.785156 L 43.671875 -72.785156 Z M 37.433594 -28.800781 L 54.277344 -59.371094 L 71.121094 -28.800781 Z M 37.433594 -28.800781 "/></g></g></g><g fill="rgb(100%, 98.039246%, 93.728638%)" fill-opacity="1"><g transform="translate(270.612092, 105.753195)"><g><path d="M 5.09375 0 L 21.523438 0 L 21.523438 -55.941406 L 76.21875 0 L 98.886719 0 L 98.886719 -72.785156 L 82.457031 -72.785156 L 82.457031 -16.84375 L 27.867188 -72.785156 L 5.09375 -72.785156 Z M 5.09375 0 "/></g></g></g><g fill="rgb(100%, 98.039246%, 93.728638%)" fill-opacity="1"><g transform="translate(374.580767, 105.753195)"><g><path d="M 5.09375 0 L 21.523438 0 L 21.523438 -55.941406 L 76.21875 0 L 98.886719 0 L 98.886719 -72.785156 L 82.457031 -72.785156 L 82.457031 -16.84375 L 27.867188 -72.785156 L 5.09375 -72.785156 Z M 5.09375 0 "/></g></g></g><g fill="rgb(100%, 98.039246%, 93.728638%)" fill-opacity="1"><g transform="translate(478.549419, 105.753195)"><g><path d="M 4.054688 0 L 22.25 0 L 31.089844 -16.117188 L 77.464844 -16.117188 L 86.304688 0 L 104.5 0 L 64.882812 -72.785156 L 43.671875 -72.785156 Z M 37.433594 -28.800781 L 54.277344 -59.371094 L 71.121094 -28.800781 Z M 37.433594 -28.800781 "/></g></g></g><g fill="rgb(100%, 98.039246%, 93.728638%)" fill-opacity="1"><g transform="translate(587.092687, 105.753195)"><g/></g></g><g fill="rgb(100%, 98.039246%, 93.728638%)" fill-opacity="1"><g transform="translate(636.269869, 105.753195)"><g><path d="M 40.550781 0 L 56.980469 0 L 56.980469 -58.957031 L 93.476562 -58.957031 L 93.476562 -72.785156 L 4.054688 -72.785156 L 4.054688 -58.957031 L 40.550781 -58.957031 Z M 40.550781 0 "/></g></g></g><g fill="rgb(100%, 98.039246%, 93.728638%)" fill-opacity="1"><g transform="translate(733.792476, 105.753195)"><g><path d="M 4.054688 0 L 22.25 0 L 31.089844 -16.117188 L 77.464844 -16.117188 L 86.304688 0 L 104.5 0 L 64.882812 -72.785156 L 43.671875 -72.785156 Z M 37.433594 -28.800781 L 54.277344 -59.371094 L 71.121094 -28.800781 Z M 37.433594 -28.800781 "/></g></g></g><g fill="rgb(100%, 98.039246%, 93.728638%)" fill-opacity="1"><g transform="translate(842.335744, 105.753195)"><g><path d="M 5.09375 0 L 79.960938 0 L 79.960938 -13.828125 L 21.523438 -13.828125 L 21.523438 -72.785156 L 5.09375 -72.785156 Z M 5.09375 0 "/></g></g></g><g fill="rgb(100%, 98.039246%, 93.728638%)" fill-opacity="1"><g transform="translate(926.342422, 105.753195)"><g><path d="M 5.09375 0 L 21.523438 0 L 21.523438 -13.933594 L 47.207031 -31.816406 L 81.3125 0 L 104.082031 0 L 59.582031 -40.96875 L 104.082031 -72.785156 L 78.503906 -72.785156 L 21.523438 -32.546875 L 21.523438 -72.785156 L 5.09375 -72.785156 Z M 5.09375 0 "/></g></g></g><g fill="rgb(100%, 98.039246%, 93.728638%)" fill-opacity="1"><g transform="translate(1034.469857, 105.753195)"><g><path d="M 31.089844 -21.941406 L 47 -21.941406 C 48.144531 -36.703125 83.496094 -29.945312 83.496094 -52.71875 C 83.496094 -68.316406 68.835938 -73.824219 45.335938 -73.824219 C 22.148438 -73.824219 5.09375 -68.316406 5.09375 -45.4375 L 21.523438 -45.4375 C 21.523438 -56.980469 29.324219 -59.996094 46.375 -59.996094 C 61.453125 -59.996094 67.066406 -56.878906 67.066406 -51.574219 C 67.066406 -37.226562 31.089844 -46.480469 31.089844 -21.941406 Z M 31.089844 0 L 47 0 L 47 -12.6875 L 31.089844 -12.6875 Z M 31.089844 0 "/></g></g></g></svg>